<svg width="40" height="40" viewBox="0 0 40 40" fill="none" xmlns="http://www.w3.org/2000/svg">
	                            <path d="M15.4443 9.07593C14.2739 9.13115 13.4744 9.31859 12.7759 9.59228C12.0527 9.8741 11.4398 10.2521 10.83 10.8643C10.2195 11.477 9.84458 12.0911 9.56474 12.8149C9.29392 13.5151 9.11021 14.3151 9.05873 15.4861C9.00747 16.6594 8.99559 17.0336 9.00131 20.0208C9.00703 23.0076 9.02023 23.3825 9.07611 24.5562C9.13199 25.7264 9.31878 26.5254 9.59246 27.2244C9.87472 27.9475 10.2522 28.5602 10.8647 29.1703C11.477 29.7804 12.0915 30.155 12.8157 30.4351C13.5153 30.7057 14.3155 30.8898 15.4863 30.9411C16.6596 30.9928 17.0343 31.0042 20.0206 30.9985C23.0082 30.9928 23.3829 30.9796 24.5561 30.9239C25.7266 30.8681 26.5252 30.6806 27.2246 30.4076C27.9477 30.1247 28.5606 29.7478 29.1705 29.1353C29.7803 28.5231 30.1552 27.9086 30.4351 27.1843C30.7059 26.4847 30.8902 25.6846 30.9411 24.5144C30.9923 23.3405 31.0044 22.9653 30.9987 19.9788C30.993 16.9918 30.9796 16.6176 30.9239 15.4446C30.8682 14.2735 30.6808 13.4747 30.4076 12.7755C30.1248 12.0523 29.7478 11.4401 29.1355 10.8296C28.5232 10.2197 27.9088 9.84418 27.1845 9.565C26.4845 9.29417 25.6848 9.10959 24.5139 9.05899C23.3406 9.00685 22.966 8.99563 19.9788 9.00135C16.992 9.00707 16.6176 9.01983 15.4443 9.07615M15.5726 28.9615C14.5001 28.9149 13.9177 28.7367 13.5296 28.5873C13.0157 28.3884 12.649 28.1499 12.2628 27.7669C11.8776 27.3823 11.6385 27.0167 11.4378 26.5039C11.2871 26.1158 11.1056 25.5341 11.0555 24.4616C11.0009 23.3022 10.9884 22.9543 10.9831 20.0171C10.9774 17.0807 10.9882 16.7327 11.0388 15.5724C11.0847 14.5008 11.264 13.9175 11.413 13.5299C11.6119 13.0153 11.8495 12.6492 12.2334 12.2631C12.6179 11.8772 12.9836 11.6387 13.4968 11.4381C13.8847 11.2865 14.4662 11.1066 15.5382 11.0557C16.6983 11.0007 17.0459 10.9891 19.9823 10.9834C22.9193 10.9776 23.2674 10.988 24.4277 11.039C25.4993 11.0857 26.0825 11.2632 26.47 11.4132C26.9843 11.6121 27.3511 11.8491 27.7367 12.2336C28.1224 12.6182 28.3615 12.9832 28.5622 13.4975C28.7135 13.8843 28.8937 14.4667 28.9443 15.5383C28.9995 16.6984 29.0121 17.0462 29.0174 19.9828C29.0231 22.92 29.0123 23.2678 28.9615 24.4275C28.9148 25.5 28.7369 26.0826 28.5873 26.4711C28.3884 26.9846 28.1505 27.3513 27.7664 27.7374C27.3823 28.122 27.0167 28.3618 26.5029 28.5624C26.116 28.7136 25.5336 28.894 24.4622 28.9448C23.3021 28.9994 22.9545 29.0119 20.0171 29.0172C17.0807 29.0229 16.7331 29.0119 15.5728 28.9615M24.5401 14.1199C24.5414 14.8484 25.1339 15.4382 25.8623 15.4369C26.5912 15.4355 27.181 14.8435 27.1799 14.1149C27.1784 13.3864 26.5861 12.7962 25.8572 12.7975C25.1284 12.7988 24.5385 13.3913 24.5399 14.1197M14.352 20.0105C14.3579 23.1301 16.8917 25.6536 20.0107 25.6474C23.1299 25.6412 25.6546 23.1083 25.6487 19.9887C25.6425 16.8702 23.1085 14.3454 19.9889 14.3514C16.8699 14.3575 14.3458 16.8915 14.352 20.0105ZM16.3331 20.0068C16.3296 17.9821 17.9684 16.3371 19.9926 16.3336C22.0173 16.3296 23.6625 17.9678 23.6665 19.9929C23.6704 22.018 22.0316 23.6625 20.0065 23.6665C17.982 23.6705 16.3369 22.0321 16.3331 20.007" fill="#1D1D1D"></path>
	                        </svg>