<svg width="40" height="40" viewBox="0 0 40 40" fill="none" xmlns="http://www.w3.org/2000/svg">
	                            <path d="M30.7836 15.6004C30.679 14.8105 30.378 14.0594 29.9083 13.4158C29.3258 12.8281 28.5352 12.4935 27.7078 12.4842C24.6284 12.2617 20.0061 12.2617 20.0061 12.2617H19.9963C19.9963 12.2617 15.3778 12.2617 12.2946 12.4842C11.4672 12.4936 10.6768 12.8282 10.0941 13.4158C9.62484 14.0595 9.32433 14.8106 9.22006 15.6004C9.08309 16.7826 9.00962 17.9714 9 19.1615V20.8278C9.00962 22.0179 9.08308 23.2066 9.22006 24.3889C9.32403 25.1787 9.62456 25.9299 10.0941 26.5735C10.764 27.1678 11.6253 27.5015 12.5208 27.5136C14.2812 27.6823 20.0024 27.7348 20.0024 27.7348C20.0024 27.7348 24.6259 27.7275 27.7042 27.505C28.5316 27.4959 29.3222 27.1612 29.9047 26.5735C30.3744 25.9298 30.6753 25.1788 30.7799 24.3889C30.9169 23.2066 30.9903 22.0179 31 20.8278V19.1578C30.9914 17.969 30.9192 16.7815 30.7836 15.6004ZM17.7298 22.8546V16.6712L23.676 19.774L17.7298 22.8546Z" fill="#1D1D1D"></path>
	                        </svg>